<mxfile host="app.diagrams.net" modified="2023-05-09T17:04:57.038Z" agent="Mozilla/5.0 (Windows NT 10.0; Win64; x64) AppleWebKit/537.36 (KHTML, like Gecko) Chrome/113.0.0.0 Safari/537.36" version="21.2.9" etag="h-nm4zA22V55qfEbIsVn" type="github">
  <diagram name="Page-1" id="6hC9zHLFaGml9jKADn4w">
    <mxGraphModel>
      <root>
        <mxCell id="0" />
        <mxCell id="1" parent="0" />
      </root>
    </mxGraphModel>
  </diagram>
</mxfile>
